<?xml version="1.0" standalone="no"?>
<!DOCTYPE svg PUBLIC "-//W3C//DTD SVG 20010904//EN"
 "http://www.w3.org/TR/2001/REC-SVG-20010904/DTD/svg10.dtd">
<svg version="1.0" xmlns="http://www.w3.org/2000/svg"
 width="1200.000000pt" height="1200.000000pt" viewBox="0 0 1200.000000 1200.000000"
 preserveAspectRatio="xMidYMid meet">

<g transform="translate(0.000000,1200.000000) scale(0.100000,-0.100000)"
fill="#000000" stroke="none">
<path d="M4075 10283 c-586 -51 -1143 -304 -1566 -711 -436 -419 -681 -891
-786 -1512 -16 -97 -18 -240 -20 -1937 -2 -1008 -2 -1833 0 -1833 27 0 291 45
349 59 323 81 620 308 789 604 54 94 107 226 136 334 l26 98 8 1209 c9 1308 8
1287 65 1475 56 185 167 371 306 511 180 184 357 286 618 359 l95 26 3103 3
3102 2 0 660 0 660 -3092 -2 c-1701 -1 -3111 -3 -3133 -5z"/>
<path d="M10122 7685 c-217 -35 -369 -88 -527 -185 -298 -183 -511 -488 -588
-840 -20 -92 -21 -131 -27 -1320 -7 -1325 -3 -1241 -61 -1425 -24 -81 -101
-240 -149 -311 -165 -244 -416 -432 -688 -518 -190 -60 23 -56 -3318 -56
l-3064 0 0 -660 0 -660 3138 3 3137 2 125 22 c583 103 1033 334 1436 737 194
194 317 356 443 582 170 305 277 655 311 1019 6 70 10 755 10 1873 0 1672 -1
1762 -17 1761 -10 -1 -82 -12 -161 -24z"/>
<path d="M4180 5965 l0 -1675 515 0 515 0 1 828 c1 455 1 835 0 845 -4 32 15
18 80 -60 35 -42 78 -92 95 -112 30 -35 125 -149 449 -536 87 -104 162 -190
165 -190 4 0 76 83 160 185 85 102 156 187 159 190 4 3 62 73 131 155 68 83
140 168 160 191 19 22 54 63 76 90 23 27 53 63 67 79 l26 30 1 -847 0 -848
520 0 520 0 0 1675 0 1675 -493 0 -493 0 -71 -92 c-86 -112 -177 -228 -378
-488 -83 -107 -202 -261 -265 -342 -62 -82 -117 -148 -121 -148 -4 0 -63 73
-132 163 -135 175 -513 664 -630 814 l-72 93 -492 0 -493 0 0 -1675z"/>
</g>
</svg>
